<?xml version="1.0" standalone="no"?>
<!DOCTYPE svg PUBLIC "-//W3C//DTD SVG 20010904//EN"
 "http://www.w3.org/TR/2001/REC-SVG-20010904/DTD/svg10.dtd">
<svg version="1.0" xmlns="http://www.w3.org/2000/svg"
 width="300.000000pt" height="212.000000pt" viewBox="0 0 300.000000 212.000000"
 preserveAspectRatio="xMidYMid meet">

<g transform="translate(0.000000,212.000000) scale(0.100000,-0.100000)"
fill="#000000" stroke="none">
<path d="M410 795 c0 -8 5 -15 10 -15 6 0 10 -40 10 -100 l0 -100 48 0 c63 0
92 21 92 65 0 22 -6 38 -17 44 -15 8 -16 12 -5 22 20 21 15 66 -10 83 -30 22
-128 22 -128 1z m115 -50 c0 -27 -4 -30 -32 -33 -32 -3 -33 -2 -33 33 0 35 1
36 33 33 28 -3 32 -6 32 -33z m-1 -68 c11 -8 17 -23 14 -38 -2 -20 -9 -25 -40
-27 l-38 -3 0 40 c0 36 3 41 23 41 13 0 31 -6 41 -13z"/>
<path d="M590 796 c0 -9 4 -16 10 -16 5 0 11 -44 12 -97 l3 -98 63 -3 c61 -3
62 -2 62 23 0 25 -14 34 -25 15 -3 -5 -22 -10 -40 -10 l-34 0 -3 98 c-3 92 -4
97 -25 100 -16 2 -23 -2 -23 -12z"/>
<path d="M842 793 c-5 -10 -22 -55 -38 -100 -16 -46 -32 -83 -36 -83 -5 0 -8
-7 -8 -15 0 -27 37 -16 50 15 11 27 17 30 55 30 39 0 44 -3 54 -30 5 -17 17
-30 27 -30 19 0 20 -3 -29 130 -35 95 -56 119 -75 83z m25 -121 c-16 -2 -31
-2 -33 1 -2 2 4 26 13 53 l16 49 17 -50 17 -50 -30 -3z"/>
<path d="M980 799 c0 -6 7 -17 15 -25 17 -18 15 -156 -3 -162 -7 -2 -12 -10
-12 -18 0 -10 12 -14 40 -14 29 0 40 4 40 15 0 8 -7 15 -15 15 -12 0 -15 16
-15 80 0 62 3 82 15 86 32 13 16 34 -25 34 -22 0 -40 -5 -40 -11z"/>
<path d="M1100 790 c-11 -11 -20 -29 -20 -40 0 -22 45 -70 65 -70 19 0 48 -38
42 -55 -7 -17 -49 -20 -77 -5 -26 14 -39 -9 -15 -27 28 -20 82 -16 106 8 30
30 22 68 -21 96 -75 48 -76 49 -61 67 17 20 60 21 67 1 6 -15 34 -21 34 -7 0
4 -7 18 -16 30 -20 29 -76 30 -104 2z"/>
<path d="M1230 796 c0 -8 5 -16 11 -18 7 -2 14 -42 17 -101 l5 -97 63 0 c62 0
64 1 64 25 0 16 -6 25 -15 25 -8 0 -15 -4 -15 -10 0 -5 -16 -10 -35 -10 -33 0
-35 2 -35 35 0 33 2 35 35 35 24 0 35 5 35 15 0 10 -11 15 -35 15 -33 0 -35 2
-35 35 0 32 2 35 30 35 17 0 30 -4 30 -10 0 -5 9 -10 19 -10 13 0 18 6 16 18
-2 9 -4 20 -4 25 -1 4 -35 7 -76 7 -58 0 -75 -3 -75 -14z"/>
<path d="M1504 799 c-3 -6 -2 -14 4 -18 10 -6 18 -70 21 -173 1 -18 7 -28 16
-28 11 0 15 11 15 40 0 37 2 40 29 40 43 0 81 35 81 73 0 38 -7 50 -37 66 -28
14 -120 14 -129 0z m121 -35 c10 -10 13 -24 9 -38 -8 -26 -22 -36 -51 -36 -21
0 -23 5 -23 45 0 41 2 45 24 45 14 0 32 -7 41 -16z"/>
<path d="M1700 710 c-18 -55 -38 -100 -42 -100 -4 0 -8 -7 -8 -15 0 -27 37
-16 50 15 11 27 17 30 54 30 37 0 43 -3 53 -30 6 -17 19 -30 28 -30 20 0 21
-3 -28 130 -48 132 -61 132 -107 0z m57 -38 c-16 -2 -31 -2 -33 1 -4 3 5 36
23 87 3 9 12 -5 23 -35 l17 -50 -30 -3z"/>
<path d="M1895 786 c-36 -36 -20 -73 47 -107 30 -15 39 -25 36 -42 -2 -16 -11
-23 -32 -25 -16 -2 -33 1 -39 7 -15 15 -27 14 -27 -4 0 -35 85 -48 113 -17 18
19 22 59 9 78 -4 6 -26 21 -50 33 -34 17 -43 27 -40 44 4 27 55 37 64 13 8
-20 34 -21 34 -2 0 47 -76 61 -115 22z"/>
<path d="M2065 777 c-29 -29 -35 -42 -35 -76 0 -78 41 -121 113 -121 41 0 84
27 68 43 -8 8 -14 8 -23 -1 -21 -21 -77 -14 -103 13 -52 51 -16 145 54 145 20
0 35 -7 43 -20 16 -25 38 -26 38 -1 0 27 -24 43 -75 48 -41 5 -47 3 -80 -30z"/>
<path d="M2299 743 c-12 -38 -30 -86 -40 -107 -24 -50 -24 -56 0 -56 12 0 23
11 30 30 9 27 14 30 53 30 39 0 45 -3 55 -30 6 -16 18 -30 27 -30 17 0 21 20
7 36 -5 5 -23 51 -41 102 -42 117 -59 122 -91 25z m71 -65 c0 -5 -14 -8 -31
-8 -28 0 -31 2 -25 25 3 13 11 37 17 52 l11 28 14 -45 c7 -25 14 -48 14 -52z"/>
<path d="M2440 796 c0 -9 5 -16 10 -16 6 0 10 -40 10 -100 l0 -100 65 0 c63 0
65 1 65 25 0 25 -14 33 -25 15 -3 -5 -22 -10 -40 -10 l-34 0 -3 98 c-3 92 -4
97 -25 100 -16 2 -23 -2 -23 -12z"/>
</g>
</svg>
